<svg version="1.1" xmlns="http://www.w3.org/2000/svg" xmlns:xlink="http://www.w3.org/1999/xlink" width="512px" height="512px" viewBox="0 0 512 512">
    <g>
        <path d="M256,0C114.609,0,0,114.609,0,256c0,141.391,114.609,256,256,256c141.391,0,256-114.609,256-256 C512,114.609,397.391,0,256,0z M256,472c-119.297,0-216-96.703-216-216S136.703,40,256,40s216,96.703,216,216S375.297,472,256,472z" />
        <text font-family='Source Code Pro' font-size='256' font-weight='420'>
            <tspan x='53,2' y='348'>R</tspan>
        </text>
        <text font-family='Source Code Pro' font-size='256' font-weight='420'>
            <tspan x='305,2' y='348'>W</tspan>
        </text>
    </g>
    <g>
        <g transform="translate(0, 0)">
            <line x1="248" y1="0" x2="264" y2="16" stroke-width="8" stroke="black"/>
            <line x1="264" y1="16" x2="248" y2="32" stroke-width="8" stroke="black"/>
        </g>
        <g transform="translate(0, 32)">
            <line x1="248" y1="0" x2="264" y2="16" stroke-width="8" stroke="black"/>
            <line x1="264" y1="16" x2="248" y2="32" stroke-width="8" stroke="black"/>
        </g>
        <g transform="translate(0, 64)">
            <line x1="248" y1="0" x2="264" y2="16" stroke-width="8" stroke="black"/>
            <line x1="264" y1="16" x2="248" y2="32" stroke-width="8" stroke="black"/>
        </g>
        <g transform="translate(0, 96)">
            <line x1="248" y1="0" x2="264" y2="16" stroke-width="8" stroke="black"/>
            <line x1="264" y1="16" x2="248" y2="32" stroke-width="8" stroke="black"/>
        </g>
        <g transform="translate(0, 128)">
            <line x1="248" y1="0" x2="264" y2="16" stroke-width="8" stroke="black"/>
            <line x1="264" y1="16" x2="248" y2="32" stroke-width="8" stroke="black"/>
        </g>
        <g transform="translate(0, 160)">
            <line x1="248" y1="0" x2="264" y2="16" stroke-width="8" stroke="black"/>
            <line x1="264" y1="16" x2="248" y2="32" stroke-width="8" stroke="black"/>
        </g>
        <g transform="translate(0, 192)">
            <line x1="248" y1="0" x2="264" y2="16" stroke-width="8" stroke="black"/>
            <line x1="264" y1="16" x2="248" y2="32" stroke-width="8" stroke="black"/>
        </g>
        <g transform="translate(0, 224)">
            <line x1="248" y1="0" x2="264" y2="16" stroke-width="8" stroke="black"/>
            <line x1="264" y1="16" x2="248" y2="32" stroke-width="8" stroke="black"/>
        </g>
        <g transform="translate(0, 256)">
            <line x1="248" y1="0" x2="264" y2="16" stroke-width="8" stroke="black"/>
            <line x1="264" y1="16" x2="248" y2="32" stroke-width="8" stroke="black"/>
        </g>
        <g transform="translate(0, 288)">
            <line x1="248" y1="0" x2="264" y2="16" stroke-width="8" stroke="black"/>
            <line x1="264" y1="16" x2="248" y2="32" stroke-width="8" stroke="black"/>
        </g>
        <g transform="translate(0, 320)">
            <line x1="248" y1="0" x2="264" y2="16" stroke-width="8" stroke="black"/>
            <line x1="264" y1="16" x2="248" y2="32" stroke-width="8" stroke="black"/>
        </g>
        <g transform="translate(0, 352)">
            <line x1="248" y1="0" x2="264" y2="16" stroke-width="8" stroke="black"/>
            <line x1="264" y1="16" x2="248" y2="32" stroke-width="8" stroke="black"/>
        </g>
        <g transform="translate(0, 384)">
            <line x1="248" y1="0" x2="264" y2="16" stroke-width="8" stroke="black"/>
            <line x1="264" y1="16" x2="248" y2="32" stroke-width="8" stroke="black"/>
        </g>
        <g transform="translate(0, 416)">
            <line x1="248" y1="0" x2="264" y2="16" stroke-width="8" stroke="black"/>
            <line x1="264" y1="16" x2="248" y2="32" stroke-width="8" stroke="black"/>
        </g>
        <g transform="translate(0, 448)">
            <line x1="248" y1="0" x2="264" y2="16" stroke-width="8" stroke="black"/>
            <line x1="264" y1="16" x2="248" y2="32" stroke-width="8" stroke="black"/>
        </g>
        <g transform="translate(0, 480)">
            <line x1="248" y1="0" x2="264" y2="16" stroke-width="8" stroke="black"/>
            <line x1="264" y1="16" x2="248" y2="32" stroke-width="8" stroke="black"/>
        </g>
    </g>
</svg>
