<svg xmlns="http://www.w3.org/2000/svg" width="512" height="512" viewBox="0 0 512 512"><path d="M256 0C114.609 0 0 114.609 0 256c0 141.391 114.609 256 256 256 141.391 0 256-114.609 256-256C512 114.609 397.391 0 256 0zm0 472c-119.297 0-216-96.703-216-216S136.703 40 256 40s216 96.703 216 216-96.703 216-216 216z"/><path d="M129.064 206.837c3.883 2.74 15.588 10.879 35.116 24.411 19.53 13.533 34.49 23.952 44.882 31.26 1.142.8 3.568 2.542 7.279 5.226 3.711 2.685 6.795 4.856 9.25 6.511 2.455 1.655 5.424 3.511 8.909 5.566 3.483 2.053 6.767 3.598 9.85 4.62 3.085 1.031 5.94 1.542 8.566 1.542h.345c2.626 0 5.482-.512 8.566-1.542 3.082-1.022 6.369-2.568 9.85-4.62 3.482-2.057 6.45-3.912 8.906-5.566 2.456-1.655 5.538-3.826 9.25-6.511 3.711-2.686 6.14-4.425 7.282-5.226 10.504-7.308 37.23-25.866 80.169-55.674 8.336-5.822 15.3-12.847 20.896-21.07 5.599-8.22 8.396-16.842 8.396-25.863 0-7.538-2.714-13.991-8.14-19.358-5.424-5.368-11.849-8.051-19.27-8.051H127.007c-8.793 0-15.56 2.969-20.299 8.906-4.739 5.94-7.108 13.362-7.108 22.27 0 7.194 3.142 14.99 9.422 23.384 6.28 8.394 12.962 14.99 20.042 19.785z"/><path d="M389.443 225.165c-37.454 25.35-65.894 45.052-85.306 59.1-6.51 4.795-11.79 8.538-15.845 11.22-4.056 2.684-9.45 5.425-16.188 8.221-6.737 2.801-13.016 4.197-18.841 4.197h-.347c-5.824 0-12.106-1.396-18.843-4.197-6.737-2.796-12.134-5.537-16.188-8.221-4.053-2.682-9.335-6.425-15.844-11.22-15.418-11.305-43.797-31.007-85.138-59.1-6.51-4.337-12.278-9.308-17.303-14.903v136.011c0 7.542 2.683 13.992 8.05 19.36 5.368 5.369 11.821 8.052 19.36 8.052h252.159c7.536 0 13.989-2.683 19.356-8.053 5.37-5.37 8.051-11.816 8.051-19.359v-136.01c-4.911 5.478-10.62 10.45-17.133 14.902z"/></svg>