<svg xmlns="http://www.w3.org/2000/svg" width="512" height="512" viewBox="0 0 512 512" zoomAndPan="disable" preserveAspectRatio="none"><rect fill="#DB5156" width="512" height="512" rx="8"/><rect fill="#222729" x="264" width="248" height="512" rx="8"/><path fill="#222729" d="M264 0h8v512h-8z"/><text font-family="Source Code Pro" font-size="256" font-weight="420" fill="#FFF"><tspan x="53,2" y="348">R</tspan></text><text font-family="Source Code Pro" font-size="256" font-weight="420" fill="#FFF"><tspan x="305,2" y="348">W</tspan></text><g fill="#222729"><path d="M248.1 16l16-16v32zM248.1 48l16-16v32zM248.1 80l16-16v32zM248.1 112l16-16v32zM248.1 144l16-16v32zM248.1 176l16-16v32zM248.1 208l16-16v32zM248.1 240l16-16v32zM248.1 272l16-16v32zM248.1 304l16-16v32zM248.1 336l16-16v32zM248.1 368l16-16v32zM248.1 400l16-16v32zM248.1 432l16-16v32zM248.1 464l16-16v32zM248.1 496l16-16v32z"/></g></svg>