<svg xmlns="http://www.w3.org/2000/svg" width="512" height="512" viewBox="0 0 512 512"><path d="M256 0C114.609 0 0 114.609 0 256c0 141.391 114.609 256 256 256 141.391 0 256-114.609 256-256C512 114.609 397.391 0 256 0zm0 472c-119.297 0-216-96.703-216-216S136.703 40 256 40s216 96.703 216 216-96.703 216-216 216z"/><text font-family="Source Code Pro" font-size="256" font-weight="420"><tspan x="53,2" y="348">R</tspan></text><text font-family="Source Code Pro" font-size="256" font-weight="420"><tspan x="305,2" y="348">W</tspan></text><g stroke-width="8" stroke="#000"><path d="M248 0l16 16M264 16l-16 16M248 32l16 16M264 48l-16 16M248 64l16 16M264 80l-16 16M248 96l16 16M264 112l-16 16M248 128l16 16M264 144l-16 16M248 160l16 16M264 176l-16 16M248 192l16 16M264 208l-16 16M248 224l16 16M264 240l-16 16"/><g><path d="M248 256l16 16M264 272l-16 16"/></g><g><path d="M248 288l16 16M264 304l-16 16"/></g><g><path d="M248 320l16 16M264 336l-16 16"/></g><g><path d="M248 352l16 16M264 368l-16 16"/></g><g><path d="M248 384l16 16M264 400l-16 16"/></g><g><path d="M248 416l16 16M264 432l-16 16"/></g><g><path d="M248 448l16 16M264 464l-16 16"/></g><g><path d="M248 480l16 16M264 496l-16 16"/></g></g></svg>