<?xml version="1.0" encoding="UTF-8"?>
<svg width="114px" height="19px" viewBox="0 0 114 19" version="1.1" xmlns="http://www.w3.org/2000/svg" xmlns:xlink="http://www.w3.org/1999/xlink">
    <!-- Generator: Sketch 46.2 (44496) - http://www.bohemiancoding.com/sketch -->
    <title>Group</title>
    <desc>Created with Sketch.</desc>
    <defs></defs>
    <g id="Page-1" stroke="none" stroke-width="1" fill="none" fill-rule="evenodd">
        <g id="Group">
            <polygon id="Triangle" fill="#2E2157" points="12.9892953 2.21390374 24.9785905 18 1 18"></polygon>
            <polygon id="Triangle-3" fill="#281D4C" points="32.5618198 0 47.9480821 18 17.1755575 18"></polygon>
            <polygon id="Triangle-3" fill="#281D4C" points="97.6137377 0 113 18 82.2274755 18"></polygon>
            <polygon id="Triangle-3" fill="#281D4C" points="59.2479929 9 74.6342551 18 43.8617306 18"></polygon>
            <polygon id="Triangle-3" fill="#281D4C" points="83.925959 7.50802139 99.3122212 17.9518717 68.5396967 17.9518717"></polygon>
            <polygon id="Triangle" fill="#2E2157" points="44.5611062 10.1069519 56.5504014 18 32.5718109 18"></polygon>
            <polygon id="Triangle" fill="#2E2157" points="68.5396967 10.1069519 80.528992 18 56.5504014 18"></polygon>
            <polygon id="Triangle" fill="#2E2157" points="74.624264 6.44919786 86.6135593 18 62.6349688 18"></polygon>
            <polygon id="Triangle-2" fill="#342562" points="20.3377342 6.44919786 27.6861731 18 12.9892953 18"></polygon>
            <polygon id="Triangle-2" fill="#342562" points="51.909545 6.44919786 59.2579839 18 44.5611062 18"></polygon>
            <polygon id="Triangle-2" fill="#342562" points="87.8124888 4.90909091 96.2049955 18 79.4199822 18"></polygon>
            <polyline id="Line" stroke="#979797" stroke-width="0.2" stroke-linecap="square" points="0.891303798 18.0451418 12.9958698 2.17955552 18.4058999 9.31778228 20.3633318 6.25776139 23.2550439 10.8588171 32.5499056 7.84539737e-15 42.4893675 11.5944523 44.5780712 10.2562656 47.9415027 12.5548712 51.9056641 6.25776139 55.2686433 11.5944523 59.2337092 9.15880547 65.0377118 12.5548712 68.5930196 10.2562656 69.8482997 11.1310903 74.6212359 6.48944238 79.1723329 10.8588171 83.9418771 7.64321148 85.3258284 8.58927049 87.8582107 4.73221721 90.2676881 8.58927049 97.5996907 0 113.101303 18.0451418"></polyline>
        </g>
    </g>
</svg>